HIERARCHY
ROOT root
{
	OFFSET	0	13.1	24.9
	CHANNELS 6  Xposition Yposition Zposition Xrotation Yrotation Zrotation
	JOINT spine_1
	{
		OFFSET	0	9.99999	0
		CHANNELS 3  Xrotation Yrotation Zrotation
		JOINT spine_2
		{
			OFFSET	0	112	-10
			CHANNELS 3  Xrotation Yrotation Zrotation
			JOINT spine_3
			{
				OFFSET	0	206.5	19.3
				CHANNELS 3  Xrotation Yrotation Zrotation
				JOINT spine_4
				{
					OFFSET	0	110.4	14.6
					CHANNELS 3  Xrotation Yrotation Zrotation
					JOINT neck_1
					{
						OFFSET	0	71.8	-50.3
						CHANNELS 3  Xrotation Yrotation Zrotation
						JOINT neck_2
						{
							OFFSET	0	86.2	-25.8
							CHANNELS 3  Xrotation Yrotation Zrotation
							JOINT head_ee
							{
								OFFSET	0	179.8	-8.7
								CHANNELS 3  Xrotation Yrotation Zrotation
								End Site
								{
									OFFSET	1	0	0
								}
							}
						}
					}
					JOINT left_clavicle
					{
						OFFSET	-43.2	22.4	-70.8
						CHANNELS 3  Xrotation Yrotation Zrotation
						JOINT left_shoulder
						{
							OFFSET	-93.9	-5.79999	48.7
							CHANNELS 3  Xrotation Yrotation Zrotation
							JOINT left_elbow
							{
								OFFSET	-291.4	-30.8	15.2
								CHANNELS 3  Xrotation Yrotation Zrotation
								JOINT left_lowarm_twist
								{
									OFFSET	-110.7	-3.89999	13.6
									CHANNELS 3  Xrotation Yrotation Zrotation
									JOINT left_hand
									{
										OFFSET	-110.7	-3.89999	13.6
										CHANNELS 3  Xrotation Yrotation Zrotation
										JOINT left_ee
										{
											OFFSET	-80.8	-5.10001	12.1
											CHANNELS 3  Xrotation Yrotation Zrotation
											End Site
											{
												OFFSET	1	0	0
											}
										}
									}
								}
							}
						}
					}
					JOINT right_clavicle
					{
						OFFSET	43.2	22.4	-70.8
						CHANNELS 3  Xrotation Yrotation Zrotation
						JOINT right_shoulder
						{
							OFFSET	93.9	-5.79999	48.7
							CHANNELS 3  Xrotation Yrotation Zrotation
							JOINT right_elbow
							{
								OFFSET	291.4	-30.8	15.2
								CHANNELS 3  Xrotation Yrotation Zrotation
								JOINT right_lowarm_twist
								{
									OFFSET	110.7	-3.89999	13.6
									CHANNELS 3  Xrotation Yrotation Zrotation
									JOINT right_hand
									{
										OFFSET	110.7	-3.89999	13.6
										CHANNELS 3  Xrotation Yrotation Zrotation
										JOINT right_ee
										{
											OFFSET	80.8	-5.10001	12.1
											CHANNELS 3  Xrotation Yrotation Zrotation
											End Site
											{
												OFFSET	1	0	0
											}
										}
									}
								}
							}
						}
					}
				}
			}
		}
	}
	JOINT left_hip
	{
		OFFSET	-82.8	-127.5	0.300001
		CHANNELS 3  Xrotation Yrotation Zrotation
		JOINT left_knee
		{
			OFFSET	-28.2	-396.7	2.2
			CHANNELS 3  Xrotation Yrotation Zrotation
			JOINT left_ankle
			{
				OFFSET	-11.7	-411.3	35.4
				CHANNELS 3  Xrotation Yrotation Zrotation
				JOINT left_toes
				{
					OFFSET	0	-60	-88.6
					CHANNELS 3  Xrotation Yrotation Zrotation
					JOINT left_foot_ee
					{
						OFFSET	-22.5	-16.5	-42.2
						CHANNELS 3  Xrotation Yrotation Zrotation
						End Site
						{
							OFFSET	1	0	0
						}
					}
				}
			}
		}
	}
	JOINT right_hip
	{
		OFFSET	82.8	-127.5	0.300001
		CHANNELS 3  Xrotation Yrotation Zrotation
		JOINT right_knee
		{
			OFFSET	28.2	-396.7	2.2
			CHANNELS 3  Xrotation Yrotation Zrotation
			JOINT right_ankle
			{
				OFFSET	11.7	-411.3	35.4
				CHANNELS 3  Xrotation Yrotation Zrotation
				JOINT right_toes
				{
					OFFSET	0	-60	-88.6
					CHANNELS 3  Xrotation Yrotation Zrotation
					JOINT right_foot_ee
					{
						OFFSET	22.5	-16.5	-42.2
						CHANNELS 3  Xrotation Yrotation Zrotation
						End Site
						{
							OFFSET	1	0	0
						}
					}
				}
			}
		}
	}
}
MOTION
Frames: 10
Frame Time: 0.02
3478.11097674 724.167 -1509.24392408 -3.35191950402 76.5659438481 -3.87171127509 0.153038 0.2586 2.54311 0.156631 0.0963047 2.5544 0.162508 -0.435828 2.51881 0.153656 -0.0326943 2.55601 -11.1855 9.97458 -0.141564 -11.3505 18.9589 2.58237 -0.0 0.0 -0.0 -2.74979 16.3324 -2.40132 -8.71396 -15.3491 67.4597 1.4583 -35.8421 0.471633 14.4762 0.28109 -1.82293 -0.0190279 7.12532 2.84506 -0.0 0.0 -0.0 7.46414 23.2521 -13.5145 -8.02336 33.3022 -59.1836 0.902429 24.0861 -0.19253 0.146348 -0.00513331 0.0179855 -0.273803 -12.1693 -3.28171 0.0 0.0 0.0 22.3223 8.72752 0.58248 -32.1087 -0.0424621 4.86346 0.60918 26.8389 -0.0938404 39.3904 -0.0 -0.0 -0.0 0.0 -0.0 -4.43476 20.1729 5.46719 -16.0895 -0.321705 -2.44005 26.083 -7.36422 3.45555 9.1573 -0.0 -0.0 0.0 0.0 0.0 
3479.50560658 724.167 -1512.9124153 -2.890155279 74.371094059 -4.34864787182 0.153038 0.2586 2.54311 0.156631 0.0963047 2.5544 0.162508 -0.435828 2.51881 0.153656 -0.0326943 2.55601 -11.1855 9.97458 -0.141564 -11.3505 18.9589 2.58237 -0.0 0.0 -0.0 -2.74979 16.3324 -2.40132 -8.71396 -15.3491 67.4597 1.4583 -35.8421 0.471633 14.4762 0.28109 -1.82293 -0.0190279 7.12532 2.84506 -0.0 0.0 -0.0 7.46414 23.2521 -13.5145 -8.02336 33.3022 -59.1836 0.902429 24.0861 -0.19253 0.146348 -0.00513331 0.0179855 -0.273803 -12.1693 -3.28171 0.0 0.0 0.0 22.3223 8.72752 0.58248 -32.1087 -0.0424621 4.86346 0.60918 26.8389 -0.0938404 39.3904 -0.0 -0.0 -0.0 0.0 -0.0 -4.43476 20.1729 5.46719 -16.0895 -0.321705 -2.44005 26.083 -7.36422 3.45555 9.1573 -0.0 -0.0 0.0 0.0 0.0 
3480.03331741 724.167 -1514.19888732 -2.75653870902 73.5932974823 -4.48765830014 0.153038 0.2586 2.54311 0.156631 0.0963047 2.5544 0.162508 -0.435828 2.51881 0.153656 -0.0326943 2.55601 -11.1855 9.97458 -0.141564 -11.3505 18.9589 2.58237 -0.0 0.0 -0.0 -2.74979 16.3324 -2.40132 -8.71396 -15.3491 67.4597 1.4583 -35.8421 0.471633 14.4762 0.28109 -1.82293 -0.0190279 7.12532 2.84506 -0.0 0.0 -0.0 7.46414 23.2521 -13.5145 -8.02336 33.3022 -59.1836 0.902429 24.0861 -0.19253 0.146348 -0.00513331 0.0179855 -0.273803 -12.1693 -3.28171 0.0 0.0 0.0 22.3223 8.72752 0.58248 -32.1087 -0.0424621 4.86346 0.60918 26.8389 -0.0938404 39.3904 -0.0 -0.0 -0.0 0.0 -0.0 -4.43476 20.1729 5.46719 -16.0895 -0.321705 -2.44005 26.083 -7.36422 3.45555 9.1573 -0.0 -0.0 0.0 0.0 0.0 
3466.75413725 720.186 -1504.71059075 -0.0557155796251 76.2744616608 -7.33691012207 0.0682431 0.234656 2.67582 0.0722242 0.0639741 2.68532 0.0770141 -0.498628 2.63943 0.0673002 -0.0756785 2.68501 -12.1859 9.74536 0.114055 -12.3799 18.4221 2.92909 -0.0 0.0 -0.0 -2.6681 16.673 -2.20931 -10.0227 -15.4405 67.691 1.28352 -32.4475 0.37349 14.8514 0.28221 -1.87085 0.010075 8.85547 3.74235 -0.0 0.0 -0.0 7.5226 23.2274 -13.6452 -6.13332 33.6159 -58.0718 1.01135 26.6099 -0.23917 0.244373 -0.00854624 0.0300396 -0.483755 -11.6938 -1.75441 0.0 0.0 0.0 24.1925 9.68599 0.488622 -33.5625 -0.108791 5.07666 -0.0871043 25.9335 0.0133694 38.3825 -0.0 -0.0 -0.0 0.0 -0.0 -7.88989 22.4804 6.48892 -14.6731 -0.321048 -2.22273 27.0683 -9.88459 3.57309 9.64231 -0.0 -0.0 0.0 0.0 0.0 
3454.6567711 721.41 -1499.95454677 5.67694091666 79.0526748426 -13.1215464942 -0.0398389 0.221939 2.78696 -0.0355191 0.0442181 2.79543 -0.0313319 -0.546202 2.74195 -0.0418072 -0.106485 2.79375 -12.8814 9.5755 0.272087 -13.0927 18.0411 3.14243 -0.0 0.0 -0.0 -2.63372 17.0361 -2.08836 -11.3421 -15.445 67.8211 1.15907 -29.8621 0.309087 15.1145 0.282808 -1.90445 0.0302164 10.108 4.38026 -0.0 0.0 -0.0 7.50443 23.1097 -13.6161 -4.86145 33.7366 -57.0681 1.09035 28.374 -0.275646 0.313036 -0.0109246 0.0384864 -0.635803 -11.3473 -0.643114 0.0 0.0 0.0 25.5332 10.2291 0.15697 -34.5779 -0.15832 5.22455 -0.575539 25.2977 0.0881276 37.6671 -0.0 -0.0 -0.0 0.0 -0.0 -10.3834 24.1302 7.36846 -13.662 -0.317293 -2.06764 27.7462 -11.6509 3.6578 9.97193 -0.0 -0.0 0.0 0.0 0.0 
3444.18305699 723.625 -1497.16123983 12.2878153237 81.3401881437 -19.6911986609 -0.333231 0.289912 2.88655 -0.328602 0.105725 2.89913 -0.320634 -0.522331 2.85369 -0.331992 -0.0652865 2.90033 -15.0543 9.27772 -0.288828 -15.343 17.917 2.87295 -0.0 0.0 -0.0 -2.40013 16.4858 -1.82263 -12.634 -15.5296 68.0837 0.932245 -24.7874 0.204865 15.6995 0.283586 -1.97916 0.08552 11.5641 5.31869 -0.0 0.0 -0.0 7.73651 21.9155 -14.2324 -3.41971 33.9032 -56.6032 1.20665 30.8671 -0.333138 0.366853 -0.0127811 0.045109 -1.12305 -9.21622 3.4035 0.0 0.0 0.0 27.4843 9.2783 -0.565905 -34.7069 -0.164804 5.24329 -1.39218 25.2615 0.213495 34.8966 -0.0 -0.0 -0.0 0.0 -0.0 -12.3698 25.2658 8.06455 -12.9138 -0.312754 -1.95295 28.8929 -12.4556 3.7906 10.0489 -0.0 -0.0 0.0 0.0 0.0 
3433.13706368 715.167 -1493.3259642 20.258585393 83.0489601191 -27.5244750858 -0.492513 0.383688 2.9276 -0.487767 0.196703 2.94606 -0.474615 -0.451373 2.91794 -0.486496 0.014917 2.95258 -16.6099 9.03515 -0.845967 -16.952 17.8148 2.52026 -0.0 0.0 -0.0 -2.26817 16.1747 -1.66959 -13.922 -15.5222 68.2244 0.782014 -21.1756 0.14618 16.1088 0.283676 -2.03144 0.111821 12.7898 5.97211 -0.0 0.0 -0.0 7.9091 21.0688 -14.6832 -1.40341 34.2286 -55.8182 1.33079 33.3925 -0.399176 0.40699 -0.0141622 0.0500491 -1.48277 -7.54735 6.49476 0.0 0.0 0.0 29.0284 8.20634 -0.84457 -32.9792 -0.0815253 4.99131 -1.96916 25.0739 0.302031 32.7571 -0.0 -0.0 -0.0 0.0 -0.0 -14.0704 26.0161 8.6088 -12.3052 -0.307956 -1.85968 29.641 -12.9892 3.87678 10.0953 -0.0 -0.0 0.0 0.0 0.0 
3416.05283447 705.295 -1488.7877347 21.1072941172 84.2648674665 -28.1930767658 -0.462246 0.436501 2.88516 -0.45765 0.252106 2.90707 -0.441854 -0.387057 2.89221 -0.453519 0.0743693 2.91702 -15.2809 8.38546 -2.10103 -15.5451 17.28 0.890383 -0.0 0.0 -0.0 -2.32895 15.7138 -1.84659 -16.0834 -15.586 68.6858 0.653704 -17.9434 0.103207 17.3603 0.281636 -2.19127 0.17833 18.0349 8.41136 -0.0 0.0 -0.0 8.01617 20.1472 -14.9925 0.611246 34.3942 -55.1372 1.49565 36.5324 -0.493684 -0.0568459 0.00200623 -0.00698266 -1.99314 -5.12738 11.0055 0.0 0.0 0.0 28.4758 6.86979 -1.22696 -25.5041 0.189852 3.87703 -6.13022 23.678 0.940834 29.0804 -0.0 -0.0 -0.0 0.0 -0.0 -15.4115 26.6202 9.0048 -10.1857 -0.283523 -1.53541 29.5632 -12.7587 3.86646 9.2017 -0.0 -0.0 0.0 0.0 0.0 
3405.15904774 705.063 -1486.03815848 12.382936258 85.0388700487 -19.2554423871 -0.542588 0.518157 2.95774 -0.537781 0.328984 2.98469 -0.517268 -0.332779 2.98427 -0.529667 0.142488 2.99937 -14.3638 7.9199 -2.90933 -14.5721 16.8752 -0.176669 -0.0 0.0 -0.0 -2.39359 15.4128 -2.00287 -17.6168 -15.5625 69.0943 0.541459 -15.0148 0.071356 18.2675 0.277974 -2.30709 0.225143 21.8797 10.1128 -0.0 0.0 -0.0 8.17314 19.4649 -15.3897 2.00968 34.4797 -54.619 1.6205 38.7528 -0.569953 -0.382638 0.013639 -0.046963 -2.34788 -3.32563 14.2752 0.0 0.0 0.0 28.1643 6.0771 -1.27451 -20.2658 0.292384 3.08001 -9.05085 22.6775 1.38885 26.4035 -0.0 -0.0 -0.0 0.0 -0.0 -16.307 26.97 8.98832 -8.675 -0.258793 -1.30493 29.5046 -12.5703 3.85862 8.57758 -0.0 -0.0 0.0 0.0 0.0 
3405.13083638 705.063 -1485.60766013 12.7535497577 85.18109301 -19.627409492 -0.542588 0.518157 2.95774 -0.537781 0.328984 2.98469 -0.517268 -0.332779 2.98427 -0.529667 0.142488 2.99937 -14.3638 7.9199 -2.90933 -14.5721 16.8752 -0.176669 -0.0 0.0 -0.0 -2.39359 15.4128 -2.00287 -17.6168 -15.5625 69.0943 0.541459 -15.0148 0.071356 18.2675 0.277974 -2.30709 0.225143 21.8797 10.1128 -0.0 0.0 -0.0 8.17314 19.4649 -15.3897 2.00968 34.4797 -54.619 1.6205 38.7528 -0.569953 -0.382638 0.013639 -0.046963 -2.34788 -3.32563 14.2752 0.0 0.0 0.0 28.1643 6.0771 -1.27451 -20.2658 0.292384 3.08001 -9.05085 22.6775 1.38885 26.4035 -0.0 -0.0 -0.0 0.0 -0.0 -16.307 26.97 8.98832 -8.675 -0.258793 -1.30493 29.5046 -12.5703 3.85862 8.57758 -0.0 -0.0 0.0 0.0 0.0 
